<svg xmlns="http://www.w3.org/2000/svg" version="1.1" xmlns:xlink="http://www.w3.org/1999/xlink" xmlns:svgjs="http://svgjs.dev/svgjs" width="1440" height="560" preserveAspectRatio="none" viewBox="0 0 1440 560"><g mask="url(&quot;#SvgjsMask1000&quot;)" fill="none"><rect width="1440" height="560" x="0" y="0" fill="#0e2a47"></rect><path d="M1052.624,705.837C1111.816,708.194,1174.881,695.06,1206.98,645.271C1241.413,591.862,1239.866,521.388,1206.343,467.404C1174.454,416.051,1112.922,392.429,1052.624,396.704C999.117,400.497,958.988,440.155,932.528,486.816C906.507,532.702,892.824,587.517,918.187,633.771C944.388,681.554,998.172,703.669,1052.624,705.837" fill="rgba(28, 83, 142, 0.4)" class="triangle-float2"></path><path d="M780.6292915580348 76.56405060785724L760.8447330954099-16.514978838144458 631.1184681577197 59.70137357879369z" fill="rgba(28, 83, 142, 0.4)" class="triangle-float1"></path><path d="M1397.4557450612272 130.66761656677625L1237.8455239147563 113.89190633259095 1221.069813680571 273.50212747906176 1380.680034827042 290.2778377132471z" fill="rgba(28, 83, 142, 0.4)" class="triangle-float2"></path><path d="M121.906,721.722C172.259,720.768,216.353,688.778,239.564,644.084C261.073,602.668,252.993,554.357,229.877,513.817C206.503,472.825,169.083,438.751,121.906,437.741C73.188,436.698,30.552,467.149,5.617,509.015C-19.977,551.986,-27.732,604.811,-3.74,648.696C21.166,694.252,69.995,722.706,121.906,721.722" fill="rgba(28, 83, 142, 0.4)" class="triangle-float1"></path><path d="M48.046709622892834 111.69230148463112L-7.498562387575959 85.79111577184702-18.57770495151769 182.05961664394226z" fill="rgba(28, 83, 142, 0.4)" class="triangle-float2"></path><path d="M755.9214713652896-52.08643253350732L709.04530567819 29.105468100566142 790.2372063122634 75.9816337876658 837.113371999363-5.21026684640767z" fill="rgba(28, 83, 142, 0.4)" class="triangle-float2"></path></g><defs><mask id="SvgjsMask1000"><rect width="1440" height="560" fill="#ffffff"></rect></mask><style>
                @keyframes float1 {
                    0%{transform: translate(0, 0)}
                    50%{transform: translate(-10px, 0)}
                    100%{transform: translate(0, 0)}
                }

                .triangle-float1 {
                    animation: float1 5s infinite;
                }

                @keyframes float2 {
                    0%{transform: translate(0, 0)}
                    50%{transform: translate(-5px, -5px)}
                    100%{transform: translate(0, 0)}
                }

                .triangle-float2 {
                    animation: float2 4s infinite;
                }

                @keyframes float3 {
                    0%{transform: translate(0, 0)}
                    50%{transform: translate(0, -10px)}
                    100%{transform: translate(0, 0)}
                }

                .triangle-float3 {
                    animation: float3 6s infinite;
                }
            </style></defs></svg>