<svg width="192" height="192" viewBox="0 0 192 192" fill="none" xmlns="http://www.w3.org/2000/svg">
<path fill-rule="evenodd" clip-rule="evenodd" d="M0 167.667C0 167.667 57.9042 216.248 164.649 176.108C164.649 176.108 170.796 156.277 162.452 110.52C162.775 106.317 145.3 191.357 0 167.667Z" fill="#E84812"/>
<path fill-rule="evenodd" clip-rule="evenodd" d="M167.673 191.995C167.673 191.995 216.253 134.091 176.113 27.3453C176.113 27.3453 156.282 21.1987 110.526 29.5425C106.323 29.2193 191.363 46.6948 167.673 191.995Z" fill="#7EB51A"/>
<path fill-rule="evenodd" clip-rule="evenodd" d="M191.998 24.3285C191.998 24.3285 134.094 -24.2527 27.349 15.8876C27.349 15.8876 21.2025 35.719 29.5463 81.4752C29.2225 85.6783 46.6984 0.638412 191.998 24.3285Z" fill="#FCBA00"/>
<path fill-rule="evenodd" clip-rule="evenodd" d="M24.3282 0C24.3282 0 -24.253 57.9042 15.8868 164.649C15.8868 164.649 35.7183 170.796 81.4745 162.452C85.6776 162.776 0.63756 145.3 24.3282 0Z" fill="#339ED3"/>
</svg>
