<svg width="824" height="115" viewBox="0 0 824 115" fill="none" xmlns="http://www.w3.org/2000/svg">
<path fill-rule="evenodd" clip-rule="evenodd" d="M177.718 68.4415C179.301 68.4415 180.822 68.1444 182.282 67.5506C183.742 66.9567 185.115 66.178 186.401 65.2129C187.688 64.2478 188.875 63.1349 189.963 61.8735C191.052 60.6117 192.042 59.3125 192.933 57.977C194.516 55.5034 195.728 52.8557 196.569 50.0354C197.41 47.2156 197.83 44.3455 197.83 41.4269C197.83 39.9416 197.558 38.5071 197.014 37.1223C196.469 35.7363 195.703 34.5241 194.713 33.4852C193.031 31.8029 191.089 30.616 188.888 29.9233C186.686 29.2302 184.397 28.884 182.023 28.884H153.894L137.195 84.1752H153.746L158.57 68.4415H177.718ZM161.91 57.0866L167.476 38.9029H177.792C178.485 38.9029 179.103 39.064 179.647 39.3857C180.192 39.7074 180.662 40.1274 181.058 40.6474C181.453 41.1663 181.762 41.7487 181.986 42.3912C182.208 43.0346 182.319 43.6525 182.319 44.2463C182.319 45.9782 182.01 47.6114 181.392 49.145C180.773 50.6788 179.895 52.0648 178.757 53.3011C178.312 53.7957 177.879 54.2786 177.459 54.7481C177.038 55.2186 176.518 55.6268 175.9 55.9726C175.281 56.3198 174.526 56.5919 173.636 56.7893C172.746 56.9874 171.607 57.0866 170.222 57.0866H161.91ZM227.146 72.449V84.1752H242.509V28.8093H226.478C226.132 28.8093 225.514 28.8841 224.622 29.0329C223.732 29.1807 222.668 29.6015 221.432 30.2942C220.195 30.9863 218.846 32.0379 217.387 33.4484C215.927 34.8586 214.43 36.8247 212.896 39.3488L186.03 84.1752H203.471L210.151 72.449H227.146ZM215.791 62.4305L227.443 41.5747V62.4305H215.791ZM288.747 34.6729C288.548 33.7825 288.19 32.9906 287.67 32.2976C287.151 31.6055 286.52 30.9991 285.777 30.4799C285.036 29.9602 284.219 29.5642 283.328 29.2921C282.438 29.02 281.548 28.884 280.656 28.884H264.033L247.407 84.1752H263.81L275.388 45.7316L283.18 84.1752H302.922L319.473 28.884H303.59L293.793 60.9452L288.747 34.6729ZM372.018 28.8093H343.519V28.6615C339.214 28.6119 335.614 29.0077 332.72 29.8482C329.826 30.69 327.327 31.939 325.224 33.5968C323.121 35.254 321.278 37.2952 319.695 39.7192C318.112 42.1441 316.504 44.9152 314.871 48.0322C314.772 48.3781 314.908 48.6007 315.28 48.6999C315.651 48.799 315.96 48.6998 316.207 48.4026C316.999 47.413 317.84 46.4983 318.73 45.6565C319.621 44.816 320.82 44.0986 322.33 43.5047C323.839 42.9109 325.793 42.4776 328.193 42.2055C330.592 41.9334 333.722 41.8468 337.582 41.9457L324.667 84.1752H341.441L354.206 41.9457H368.01L372.018 28.8093ZM395.099 84.1014H411.872L428.645 28.8093H412.021L407.122 44.8402H395.025L399.849 28.884H383.298L378.103 45.8053C376.124 46.2504 374.38 46.9678 372.871 47.9571C371.362 48.9467 369.977 50.1595 368.716 51.5942C367.454 53.0289 366.266 54.6745 365.152 56.5297C364.04 58.3853 362.889 60.426 361.702 62.6529C361.603 62.9988 361.739 63.2213 362.11 63.3205C362.481 63.4197 362.791 63.295 363.037 62.9492C364.275 61.5148 365.858 60.3269 367.787 59.3872C369.717 58.4472 371.993 57.7049 374.615 57.1607L366.377 84.1752H383.076L391.463 56.5668H403.56L395.099 84.1014ZM472.582 50.3326C468.327 50.3326 464.925 50.3199 462.377 50.2957C459.828 50.2703 457.837 50.2579 456.402 50.2579C455.017 50.2579 454.015 50.2706 453.397 50.2957C452.778 50.3212 452.246 50.3569 451.801 50.4065C452.296 49.7145 452.728 48.8854 453.1 47.9202C453.471 46.9551 453.892 46.028 454.361 45.1379C454.831 44.2465 455.388 43.4922 456.031 42.8739C456.674 42.255 457.491 41.9457 458.48 41.9457H482.082L486.089 28.6615H454.176C450.663 28.6615 447.459 29.131 444.565 30.0717C441.67 31.0117 439.036 32.3353 436.66 34.0421C434.286 35.7489 432.146 37.79 430.241 40.1653C428.336 42.5397 426.642 45.1619 425.158 48.0322C425.009 48.3285 425.083 48.5387 425.38 48.663C425.676 48.7863 425.949 48.7736 426.196 48.6261C426.295 48.6261 426.419 48.5511 426.567 48.4026C427.458 47.4626 428.336 46.7579 429.202 46.2877C430.068 45.8181 430.909 45.4596 431.725 45.2116C432.541 44.964 433.333 44.7664 434.1 44.6177C434.867 44.4689 435.597 44.2719 436.29 44.0239C434.755 47.4878 433.432 51.0373 432.319 54.6744C431.206 58.3111 430.303 62.0095 429.61 65.77C429.264 67.6497 429.152 69.6537 429.277 71.7814C429.4 73.9087 429.833 75.8876 430.575 77.7187C431.317 79.5488 432.418 81.1079 433.878 82.3938C435.338 83.6806 437.23 84.4474 439.555 84.6954C449.946 85.8325 460.286 85.6099 470.578 84.0267L474.511 70.297C470.405 71.0883 466.224 71.5461 461.969 71.6694C457.713 71.7937 453.484 71.5334 449.278 70.891C448.585 70.7918 447.967 70.4205 447.423 69.777C446.878 69.1336 446.656 68.4661 446.754 67.7731C446.902 66.636 447.15 65.4978 447.496 64.3598C447.842 63.2214 448.14 62.0833 448.387 60.9452H469.316L472.582 50.3326ZM515.405 84.1752H530.99L525.35 66.9566C527.23 65.9673 528.949 64.6687 530.508 63.0611C532.067 61.4526 533.415 59.7585 534.553 57.977C536.185 55.5034 537.41 52.8557 538.226 50.0354C539.043 47.2156 539.451 44.3455 539.451 41.4269C539.451 39.2992 538.981 37.4437 538.041 35.8606C537.101 34.2774 535.889 32.9661 534.405 31.9272C532.92 30.888 531.238 30.1203 529.357 29.6256C527.478 29.131 525.597 28.884 523.717 28.884H495.737L479.039 84.1752H495.07L499.819 68.4415H510.062L515.405 84.1752ZM503.234 57.0866L508.725 38.9029H518.968C519.661 38.9029 520.291 39.064 520.86 39.3857C521.429 39.7074 521.912 40.1274 522.307 40.6474C522.703 41.1663 523.012 41.7487 523.235 42.3912C523.458 43.0346 523.568 43.6525 523.568 44.2463C523.568 45.9782 523.259 47.6114 522.641 49.145C522.022 50.6788 521.144 52.0648 520.006 53.3011C519.561 53.7957 519.128 54.2786 518.708 54.7481C518.287 55.2186 517.767 55.6268 517.149 55.9726C516.531 56.3198 515.764 56.5919 514.849 56.7893C513.933 56.9874 512.783 57.0866 511.397 57.0866H503.234ZM604.763 34.6729C604.565 33.7825 604.206 32.9906 603.686 32.2976C603.167 31.6055 602.536 30.9991 601.793 30.4799C601.052 29.9602 600.235 29.5642 599.344 29.2921C598.454 29.02 597.564 28.884 596.672 28.884H580.049L563.424 84.1752H579.826L591.404 45.7316L599.197 84.1752H618.937L635.488 28.884H619.606L609.809 60.9452L604.763 34.6729ZM671.854 72.449V84.1752H687.218V28.8093H671.187C670.841 28.8093 670.223 28.8841 669.331 29.0329C668.441 29.1807 667.377 29.6015 666.14 30.2942C664.903 30.9863 663.555 32.0379 662.095 33.4484C660.635 34.8586 659.139 36.8247 657.605 39.3488L630.739 84.1752H648.18L654.859 72.449H671.854ZM660.499 62.4305L672.152 41.5747V62.4305H660.499ZM692.116 84.1752H708.889L725.587 28.884H709.037L692.116 84.1752ZM737.908 67.1802C738.007 65.8933 738.217 64.6561 738.539 63.4694C738.86 62.2817 739.145 61.0444 739.393 59.7585L748.744 28.8093H732.194C730.511 34.2521 729.076 38.8911 727.889 42.7253C726.701 46.5598 725.725 49.7759 724.958 52.3738C724.19 54.9707 723.597 57.037 723.176 58.5709C722.755 60.1044 722.422 61.3038 722.174 62.1697C721.926 63.0357 721.753 63.6666 721.654 64.0621C721.556 64.4585 721.481 64.8049 721.432 65.1011C719.947 70.7422 720.01 75.1829 721.617 78.4236C723.226 81.6639 726.207 83.5572 730.561 84.1014C735.657 84.8431 740.728 85.1403 745.775 84.9918C750.822 84.8431 756.092 84.2989 761.583 83.3589L765.517 69.6286C761.41 70.4701 757.304 71.0388 753.196 71.3361C749.09 71.6327 744.934 71.4597 740.728 70.8163C740.035 70.6675 739.368 70.1979 738.724 69.4061C738.081 68.6148 737.81 67.8722 737.908 67.1802ZM765.813 84.1752H786.149C790.602 84.1752 794.238 84.0151 797.059 83.6934C799.879 83.3717 802.155 82.7905 803.887 81.9487C806.707 80.6132 808.946 78.6712 810.603 76.123C812.261 73.5747 813.584 70.7919 814.574 67.7731C815.415 65.3987 815.786 63.1098 815.687 60.9084C815.589 58.7069 815.069 56.9623 814.129 55.6764C812.941 53.9941 811.159 52.8064 808.785 52.1134C806.41 51.4213 803.021 51.0742 798.618 51.0742C797.579 51.0742 796.687 51.0742 795.946 51.0742C795.203 51.0742 794.56 51.0615 794.016 51.0373C793.471 51.0119 793.002 50.9635 792.605 50.8895C792.21 50.8148 791.814 50.6786 791.419 50.4812C790.478 50.0352 789.847 49.4046 789.525 48.5883C789.204 47.7716 789.315 46.7453 789.86 45.5081C790.354 44.3706 791.233 43.5543 792.494 43.0596C793.756 42.564 795.253 42.2179 796.985 42.0208H820.808L824 28.6615H796.836C792.531 28.6119 788.92 29.0201 786 29.886C783.081 30.752 780.558 32.0137 778.431 33.6709C776.303 35.3281 774.422 37.369 772.79 39.7939C771.157 42.2179 769.524 44.9889 767.892 48.1059C767.793 48.4025 767.892 48.6134 768.188 48.7367C768.485 48.8604 768.757 48.8486 769.005 48.6999C769.104 48.6999 769.228 48.6261 769.376 48.4773C770.118 47.5373 771.046 46.7082 772.159 45.991C773.272 45.2738 774.521 44.6429 775.906 44.0986C775.412 45.5333 775.128 46.9434 775.053 48.3285C774.979 49.7145 775.053 51.0255 775.276 52.2618C775.498 53.4991 775.808 54.6616 776.204 55.7501C776.6 56.8389 776.995 57.8283 777.392 58.7193C777.738 59.5602 778.381 60.2531 779.321 60.7974C780.261 61.3416 781.362 61.7984 782.624 62.1697C783.885 62.541 785.27 62.8132 786.78 62.9864C788.289 63.1594 789.773 63.2836 791.233 63.3574C792.692 63.4315 794.065 63.4694 795.352 63.4694C796.638 63.4694 797.726 63.4439 798.618 63.3947C799.657 63.9389 800.337 64.4587 800.658 64.9537C800.979 65.4483 800.943 66.3384 800.547 67.6253C800.201 68.6645 799.532 69.4312 798.543 69.9259C797.553 70.4205 796.391 70.7549 795.054 70.9278C793.719 71.1011 792.309 71.1876 790.825 71.1876C789.341 71.1876 787.93 71.1876 786.594 71.1876H769.005L765.813 84.1752Z" fill="#656C70"/>
<path fill-rule="evenodd" clip-rule="evenodd" d="M0 99.9414C0 99.9414 34.5151 128.899 98.1429 104.973C98.1429 104.973 101.807 93.1521 96.8331 65.8781C97.0258 63.3727 86.6092 114.063 0 99.9414Z" fill="#E84812"/>
<path fill-rule="evenodd" clip-rule="evenodd" d="M99.9464 114.443C99.9464 114.443 128.904 79.9279 104.978 16.2998C104.978 16.2998 93.1568 12.636 65.8831 17.6095C63.3777 17.4168 114.067 27.8335 99.9464 114.443Z" fill="#7EB51A"/>
<path fill-rule="evenodd" clip-rule="evenodd" d="M114.447 14.5016C114.447 14.5016 79.9314 -14.4564 16.304 9.47019C16.304 9.47019 12.6402 21.2911 17.6137 48.5651C17.4207 51.0705 27.8376 0.380554 114.447 14.5016Z" fill="#FCBA00"/>
<path fill-rule="evenodd" clip-rule="evenodd" d="M14.5014 0C14.5014 0 -14.4566 34.5151 9.46968 98.1429C9.46968 98.1429 21.2907 101.807 48.5647 96.8332C51.0701 97.0261 0.380032 86.6092 14.5014 0Z" fill="#339ED3"/>
</svg>
