<svg width="346" height="48" viewBox="0 0 346 48" fill="none" xmlns="http://www.w3.org/2000/svg">
<path fill-rule="evenodd" clip-rule="evenodd" d="M74.5391 28.7059C75.2032 28.7059 75.8411 28.5813 76.4535 28.3322C77.0658 28.0832 77.6414 27.7566 78.1811 27.3518C78.7208 26.947 79.2186 26.4802 79.6751 25.9511C80.1316 25.4219 80.5467 24.877 80.9204 24.3168C81.5846 23.2794 82.0928 22.1689 82.4455 20.9859C82.7986 19.8033 82.9747 18.5995 82.9747 17.3754C82.9747 16.7524 82.8604 16.1507 82.6322 15.5699C82.4039 14.9886 82.0823 14.4802 81.6674 14.0445C80.9616 13.3389 80.1472 12.841 79.2239 12.5505C78.3004 12.2598 77.3404 12.1146 76.3446 12.1146H64.5468L57.543 35.305H64.4848L66.508 28.7059H74.5391ZM67.9087 23.9434L70.2434 16.3168H74.5702C74.8607 16.3168 75.12 16.3843 75.3483 16.5192C75.5766 16.6542 75.7739 16.8303 75.9398 17.0484C76.1058 17.266 76.2354 17.5103 76.3291 17.7798C76.4224 18.0497 76.469 18.3088 76.469 18.5579C76.469 19.2843 76.3394 19.9693 76.08 20.6125C75.8204 21.2558 75.4523 21.8371 74.9748 22.3557C74.7882 22.5631 74.6064 22.7657 74.4303 22.9626C74.2538 23.1599 74.0356 23.3311 73.7764 23.4762C73.5171 23.6218 73.2004 23.7359 72.827 23.8187C72.4536 23.9018 71.9762 23.9434 71.395 23.9434H67.9087ZM95.2702 30.3867V35.305H101.714V12.0833H94.9902C94.845 12.0833 94.5858 12.1146 94.2119 12.177C93.8386 12.239 93.3922 12.4155 92.8736 12.7061C92.3547 12.9963 91.7892 13.4374 91.177 14.029C90.5647 14.6205 89.937 15.4451 89.2936 16.5038L78.0254 35.305H85.3406L88.142 30.3867H95.2702ZM90.5076 26.1848L95.395 17.4374V26.1848H90.5076ZM121.107 14.5426C121.024 14.1691 120.874 13.837 120.655 13.5463C120.438 13.2561 120.173 13.0017 119.862 12.784C119.551 12.566 119.208 12.3999 118.834 12.2858C118.461 12.1716 118.088 12.1146 117.714 12.1146H110.741L103.768 35.305H110.648L115.504 19.1809L118.772 35.305H127.052L133.994 12.1146H127.333L123.224 25.5618L121.107 14.5426ZM156.033 12.0833H144.08V12.0213C142.274 12.0005 140.764 12.1665 139.55 12.519C138.336 12.8721 137.288 13.3959 136.407 14.0913C135.524 14.7863 134.752 15.6425 134.088 16.6591C133.423 17.6762 132.749 18.8384 132.064 20.1458C132.023 20.2908 132.08 20.3842 132.235 20.4258C132.391 20.4674 132.521 20.4258 132.624 20.3011C132.957 19.8861 133.309 19.5024 133.683 19.1494C134.056 18.7968 134.56 18.4959 135.193 18.2469C135.826 17.9978 136.645 17.8161 137.652 17.7019C138.658 17.5878 139.971 17.5515 141.59 17.593L136.173 35.305H143.208L148.562 17.593H154.352L156.033 12.0833ZM165.714 35.274H172.749L179.784 12.0833H172.811L170.756 18.807H165.682L167.706 12.1146H160.764L158.585 19.2118C157.755 19.3984 157.023 19.6994 156.391 20.1143C155.758 20.5294 155.177 21.038 154.648 21.6398C154.119 22.2415 153.62 22.9317 153.153 23.7098C152.687 24.4881 152.204 25.344 151.706 26.278C151.665 26.4231 151.722 26.5165 151.877 26.5581C152.033 26.5997 152.163 26.5474 152.266 26.4023C152.785 25.8007 153.449 25.3024 154.258 24.9083C155.068 24.514 156.022 24.2027 157.122 23.9745L153.667 35.305H160.671L164.188 23.7254H169.262L165.714 35.274ZM198.212 21.1106C196.427 21.1106 195 21.1053 193.931 21.0952C192.863 21.0845 192.027 21.0793 191.426 21.0793C190.845 21.0793 190.424 21.0846 190.165 21.0952C189.905 21.1058 189.682 21.1208 189.496 21.1416C189.703 20.8514 189.885 20.5036 190.04 20.0988C190.196 19.694 190.373 19.3052 190.57 18.9318C190.767 18.558 191 18.2416 191.27 17.9823C191.54 17.7227 191.882 17.593 192.297 17.593H202.196L203.877 12.0213H190.492C189.018 12.0213 187.675 12.2182 186.461 12.6127C185.247 13.007 184.142 13.5622 183.145 14.278C182.15 14.9939 181.252 15.85 180.453 16.8462C179.654 17.8421 178.943 18.9419 178.321 20.1458C178.258 20.27 178.289 20.3582 178.414 20.4103C178.538 20.4621 178.653 20.4568 178.757 20.3949C178.798 20.3949 178.85 20.3634 178.912 20.3011C179.286 19.9069 179.654 19.6113 180.017 19.4141C180.38 19.2172 180.733 19.0668 181.075 18.9628C181.418 18.8589 181.75 18.7761 182.072 18.7137C182.393 18.6513 182.699 18.5686 182.99 18.4646C182.346 19.9174 181.792 21.4062 181.324 22.9317C180.858 24.457 180.479 26.0082 180.188 27.5854C180.043 28.3738 179.996 29.2143 180.048 30.1067C180.1 30.999 180.282 31.829 180.593 32.597C180.904 33.3646 181.366 34.0185 181.978 34.5578C182.591 35.0975 183.384 35.4191 184.359 35.5231C188.718 36.0001 193.055 35.9067 197.371 35.2427L199.021 29.4842C197.299 29.816 195.545 30.008 193.76 30.0598C191.976 30.1119 190.201 30.0027 188.438 29.7333C188.147 29.6917 187.888 29.5359 187.659 29.2661C187.431 28.9962 187.338 28.7162 187.379 28.4256C187.441 27.9486 187.545 27.4713 187.69 26.9939C187.835 26.5165 187.96 26.0391 188.064 25.5618H196.842L198.212 21.1106ZM216.173 35.305H222.709L220.344 28.0831C221.132 27.6682 221.853 27.1235 222.507 26.4492C223.161 25.7746 223.727 25.064 224.204 24.3168C224.888 23.2794 225.402 22.1689 225.744 20.9859C226.087 19.8033 226.258 18.5995 226.258 17.3754C226.258 16.483 226.061 15.7047 225.667 15.0407C225.272 14.3767 224.764 13.8267 224.142 13.391C223.519 12.9551 222.813 12.6331 222.025 12.4256C221.236 12.2182 220.447 12.1146 219.659 12.1146H207.924L200.92 35.305H207.643L209.636 28.7059H213.932L216.173 35.305ZM211.068 23.9434L213.371 16.3168H217.667C217.958 16.3168 218.222 16.3843 218.46 16.5192C218.699 16.6542 218.902 16.8303 219.068 17.0484C219.233 17.266 219.363 17.5103 219.457 17.7798C219.55 18.0497 219.597 18.3088 219.597 18.5579C219.597 19.2843 219.467 19.9693 219.208 20.6125C218.948 21.2558 218.58 21.8371 218.103 22.3557C217.916 22.5631 217.734 22.7657 217.558 22.9626C217.382 23.1599 217.163 23.3311 216.904 23.4762C216.645 23.6218 216.323 23.7359 215.939 23.8187C215.555 23.9018 215.073 23.9434 214.492 23.9434H211.068ZM253.651 14.5426C253.568 14.1691 253.418 13.837 253.2 13.5463C252.982 13.2561 252.717 13.0017 252.406 12.784C252.095 12.566 251.752 12.3999 251.379 12.2858C251.005 12.1716 250.632 12.1146 250.258 12.1146H243.286L236.313 35.305H243.192L248.048 19.1809L251.317 35.305H259.596L266.538 12.1146H259.877L255.768 25.5618L253.651 14.5426ZM281.791 30.3867V35.305H288.235V12.0833H281.511C281.366 12.0833 281.107 12.1146 280.733 12.177C280.359 12.239 279.913 12.4155 279.394 12.7061C278.876 12.9963 278.31 13.4374 277.698 14.029C277.085 14.6205 276.458 15.4451 275.814 16.5038L264.546 35.305H271.861L274.663 30.3867H281.791ZM277.028 26.1848L281.916 17.4374V26.1848H277.028ZM290.289 35.305H297.324L304.328 12.1146H297.386L290.289 35.305ZM309.495 28.1769C309.537 27.6371 309.625 27.1182 309.76 26.6205C309.895 26.1223 310.014 25.6034 310.118 25.0641L314.04 12.0833H307.099C306.393 14.3661 305.791 16.3118 305.293 17.92C304.795 19.5282 304.385 20.8771 304.064 21.9667C303.742 23.0559 303.493 23.9226 303.317 24.5659C303.14 25.2091 303 25.7122 302.896 26.0754C302.792 26.4386 302.72 26.7032 302.678 26.8691C302.637 27.0354 302.606 27.1806 302.585 27.3049C301.962 29.6709 301.988 31.5334 302.663 32.8926C303.337 34.2517 304.588 35.0458 306.414 35.274C308.551 35.5851 310.678 35.7098 312.795 35.6475C314.912 35.5851 317.122 35.3569 319.425 34.9626L321.075 29.2038C319.353 29.5567 317.63 29.7953 315.908 29.92C314.185 30.0444 312.442 29.9718 310.678 29.7019C310.388 29.6395 310.108 29.4426 309.838 29.1105C309.568 28.7786 309.454 28.4671 309.495 28.1769ZM321.199 35.305H329.729C331.596 35.305 333.122 35.2378 334.305 35.1029C335.488 34.968 336.442 34.7242 337.168 34.3711C338.351 33.811 339.29 32.9965 339.986 31.9277C340.681 30.8589 341.236 29.6917 341.651 28.4256C342.003 27.4297 342.159 26.4697 342.118 25.5463C342.076 24.623 341.858 23.8912 341.464 23.3519C340.966 22.6463 340.219 22.1482 339.223 21.8575C338.227 21.5673 336.805 21.4217 334.958 21.4217C334.523 21.4217 334.149 21.4217 333.838 21.4217C333.526 21.4217 333.256 21.4163 333.028 21.4062C332.8 21.3955 332.603 21.3753 332.437 21.3442C332.271 21.3129 332.105 21.2558 331.939 21.173C331.544 20.9859 331.28 20.7214 331.145 20.379C331.01 20.0365 331.057 19.606 331.285 19.0871C331.493 18.61 331.861 18.2676 332.39 18.0602C332.919 17.8523 333.547 17.7071 334.274 17.6245H344.266L345.604 12.0213H334.211C332.406 12.0005 330.891 12.1717 329.666 12.5349C328.442 12.8981 327.384 13.4273 326.492 14.1223C325.599 14.8174 324.81 15.6734 324.125 16.6905C323.441 17.7071 322.756 18.8694 322.071 20.1767C322.03 20.3011 322.071 20.3895 322.196 20.4413C322.32 20.4931 322.434 20.4882 322.538 20.4258C322.58 20.4258 322.632 20.3949 322.694 20.3325C323.005 19.9382 323.394 19.5905 323.861 19.2897C324.328 18.9889 324.852 18.7242 325.433 18.496C325.225 19.0977 325.106 19.6891 325.075 20.27C325.044 20.8514 325.075 21.4013 325.168 21.9198C325.262 22.4387 325.392 22.9263 325.558 23.3828C325.723 23.8395 325.889 24.2545 326.056 24.6282C326.201 24.9809 326.471 25.2715 326.865 25.4998C327.259 25.7281 327.721 25.9197 328.25 26.0754C328.779 26.2311 329.36 26.3452 329.993 26.4179C330.626 26.4904 331.249 26.5426 331.861 26.5735C332.473 26.6046 333.049 26.6205 333.589 26.6205C334.128 26.6205 334.585 26.6098 334.958 26.5891C335.394 26.8174 335.68 27.0354 335.814 27.243C335.949 27.4505 335.933 27.8238 335.768 28.3636C335.622 28.7994 335.342 29.121 334.927 29.3285C334.512 29.5359 334.024 29.6762 333.464 29.7487C332.904 29.8214 332.312 29.8577 331.69 29.8577C331.067 29.8577 330.476 29.8577 329.915 29.8577H322.538L321.199 35.305Z" fill="#656C70"/>
<path fill-rule="evenodd" clip-rule="evenodd" d="M0 41.9177C0 41.9177 14.4764 54.0632 41.1633 44.028C41.1633 44.028 42.7 39.0701 40.614 27.6307C40.6948 26.5799 36.3259 47.8405 0 41.9177Z" fill="#E84812"/>
<path fill-rule="evenodd" clip-rule="evenodd" d="M41.9185 48C41.9185 48 54.0639 33.5235 44.0287 6.83648C44.0287 6.83648 39.0707 5.2998 27.6315 7.3858C26.5807 7.305 47.8411 11.674 41.9185 48Z" fill="#7EB51A"/>
<path fill-rule="evenodd" clip-rule="evenodd" d="M48.0014 6.08227C48.0014 6.08227 33.525 -6.06333 6.83824 3.972C6.83824 3.972 5.30157 8.92997 7.38757 20.3693C7.30664 21.4201 11.6757 0.159607 48.0014 6.08227Z" fill="#FCBA00"/>
<path fill-rule="evenodd" clip-rule="evenodd" d="M6.08219 0C6.08219 0 -6.0634 14.4764 3.9718 41.1633C3.9718 41.1633 8.9298 42.7 20.3691 40.614C21.4199 40.6949 0.159394 36.3259 6.08219 0Z" fill="#339ED3"/>
</svg>
